<svg width="25" height="25" viewBox="0 0 25 25" fill="none" xmlns="http://www.w3.org/2000/svg">
<path fill-rule="evenodd" clip-rule="evenodd" d="M1.5 12.5C1.5 6.42487 6.42487 1.5 12.5 1.5C18.5751 1.5 23.5 6.42487 23.5 12.5C23.5 18.5751 18.5751 23.5 12.5 23.5C6.42487 23.5 1.5 18.5751 1.5 12.5ZM12.5 0.5C5.87259 0.5 0.5 5.87256 0.5 12.5C0.5 19.1274 5.87259 24.5 12.5 24.5C19.1274 24.5 24.5 19.1274 24.5 12.5C24.5 5.87256 19.1274 0.5 12.5 0.5ZM10.75 17.2631L17.5 13.366C18.1667 12.9811 18.1667 12.0189 17.5 11.634L10.75 7.73688C10.0833 7.35199 9.25 7.83307 9.25 8.60291V16.3971C9.25 17.1669 10.0833 17.648 10.75 17.2631Z" fill="#FFAA55"/>
</svg>
